<?xml version="1.0" encoding="utf-8"?>
<!-- Generator: Adobe Illustrator 16.0.0, SVG Export Plug-In . SVG Version: 6.00 Build 0)  -->
<!DOCTYPE svg PUBLIC "-//W3C//DTD SVG 1.1//EN" "http://www.w3.org/Graphics/SVG/1.1/DTD/svg11.dtd">
<svg version="1.1" id="Layer_1" xmlns="http://www.w3.org/2000/svg" xmlns:xlink="http://www.w3.org/1999/xlink" x="0px" y="0px"
	 width="50px" height="50px" viewBox="0 0 50 50" enable-background="new 0 0 50 50" xml:space="preserve">
<rect x="-58" y="58" fill="#FFFFFF" width="279" height="71"/>
<g>
	<g>
		<path d="M11.735,46C10.492,46,9,44.695,9,43.452v-0.104C9,42.105,10.492,41,11.735,41H14v-5.086C14,35.638,14.351,35,14.627,35
			h4.488c-0.548,0-1.3-0.639-1.995-1.044c-1.952-1.139-3.795-2.11-3.795-3.495c0-4.346,1.652-10.028,6.289-12.056
			c0.331-0.952,1.697-4.719,3.224-6.986c-0.938-0.729-1.483-1.847-1.483-3.111c0-2.235,1.646-3.875,3.829-3.875
			c0.126,0,0.197,0.007,0.269,0.012c0.104-0.005,0.175-0.007,0.248-0.007c2.236,0,3.883,1.647,3.883,3.831
			c0,1.308-0.546,2.447-1.484,3.176c1.526,2.266,2.893,6.061,3.223,7.012c4.637,2.028,6.289,7.762,6.289,12.107
			c0,1.386-1.844,2.253-3.795,3.392C33.12,34.361,32.368,35,31.82,35h4.488C36.585,35,37,35.638,37,35.914V41h2.2
			c1.243,0,1.8,1.105,1.8,2.349v0.104C41,44.695,40.443,46,39.2,46H11.735z"/>
		<path fill="#FFFFFF" d="M25.752,5C27.654,5,29,6.367,29,8.27v0.052c0,1.286-0.606,2.403-1.648,2.995
			c1.811,2.396,3.548,7.515,3.548,7.515c4.23,1.713,6.2,6.934,6.2,11.776c0,1.931-5.621,3.393-6.459,5.393H36v6h3.2
			c0.97,0,1.8,0.378,1.8,1.349v0.104C41,44.421,40.17,45,39.2,45H25.468H11.735C10.766,45,10,44.421,10,43.452v-0.104
			C10,42.378,10.766,42,11.735,42H15v-6h5.295c-0.837-2-6.469-3.462-6.469-5.393c0-4.843,1.959-10.042,6.189-11.755
			c0,0,1.791-5.129,3.601-7.525C22.574,10.735,22,9.607,22,8.321V8.27C22,6.367,23.28,5,25.183,5h0.053
			c0.079,0,0.155,0.007,0.232,0.012C25.544,5.007,25.621,5,25.699,5H26 M25.752,4h-0.053c-0.078,0-0.155,0.004-0.232,0.009
			C25.374,4.003,25.306,4,25.236,4h-0.053C22.715,4,21,5.801,21,8.27v0.052c0,1.258,0.41,2.4,1.255,3.217
			c-1.368,2.191-2.598,5.401-3.005,6.551c-4.705,2.198-6.406,8.039-6.406,12.475c0,1.673,1.955,2.86,4.034,4.073
			C17.051,34.738,17.226,35,17.414,35h-2.787C14.075,35,14,35.361,14,35.914V41h-2.265C10.216,41,9,41.829,9,43.349v0.104
			C9,44.972,10.216,46,11.735,46h13.732H39.2c1.52,0,2.8-1.028,2.8-2.548v-0.104C42,41.829,40.72,41,39.2,41H37v-5.086
			C37,35.361,36.861,35,36.309,35h-2.786c0.188,0,0.371-0.262,0.544-0.362c2.079-1.213,4.043-2.379,4.043-4.052
			c0-4.437-1.683-10.288-6.388-12.485c-0.407-1.151-1.641-4.366-3.01-6.557C29.558,10.727,30,9.579,30,8.321V8.27
			C30,5.801,28.221,4,25.752,4L25.752,4z"/>
	</g>
</g>
<g>
	<g>
		<path fill="#FFFFFF" d="M43.002,113c-1.243,0-2.002-1.305-2.002-2.548v-0.104c0-1.243,0.759-2.349,2.002-2.349H45v-5.086
			c0-0.276,0.617-0.914,0.894-0.914h21.682c0.276,0,0.425,0.638,0.425,0.914V108h2.467c1.243,0,2.533,1.105,2.533,2.349v0.104
			c0,1.243-1.29,2.548-2.533,2.548H43.002z"/>
		<path d="M68,103v6h2.467c0.969,0,1.533,0.378,1.533,1.349v0.104c0,0.969-0.564,1.548-1.533,1.548H56.734H43.002
			c-0.969,0-2.002-0.579-2.002-1.548v-0.104c0-0.971,1.033-1.349,2.002-1.349H46v-6H68 M67.575,102H45.894
			c-0.553,0-0.894,0.361-0.894,0.914V108h-1.998c-1.52,0-3.002,0.83-3.002,2.349v0.104c0,1.52,1.482,2.548,3.002,2.548h13.732
			h13.732c1.52,0,2.533-1.028,2.533-2.548v-0.104c0-1.519-1.014-2.349-2.533-2.349H69v-5.086C69,102.361,68.128,102,67.575,102
			L67.575,102z"/>
	</g>
	<g>
		<path fill="#FFFFFF" d="M46.846,100c-0.187,0-0.356,0.055-0.443-0.109c-0.086-0.166-0.073-0.285,0.033-0.438
			c1.245-1.793,2.487-3.187,3.486-4.337c1.217-1.403,2.178-2.49,2.48-3.473c0.218-0.708,0.12-0.883,0.119-0.885
			c-1.282,0.02-5.396,3.611-5.742,4.564c-0.359,0.988-2.975,2.662-5.155,3.019c-0.091,0.015-0.182,0.024-0.274,0.024
			c-1.775,0-3.907-2.756-4.346-3.349c-0.148-0.107-0.358-0.321-0.467-0.717c-0.354-1.287,0.642-3.527,2.956-6.657
			c4.29-5.803,5.452-8.15,5.464-8.174c0.054-0.11,0.146-0.197,0.259-0.244l4.001-1.645l4.058-4.27
			c0.095-0.1,0.227-0.155,0.362-0.155c0.032,0,0.064,0.003,0.097,0.01c0.167,0.032,0.307,0.148,0.369,0.309l1.453,3.719
			c1.748,0.45,11.246,3.412,11.875,14.718c0.182,3.263-0.118,5.19-0.315,6.467c-0.097,0.621-0.166,1.069-0.129,1.381
			c0.017,0.142-0.028,0.126-0.123,0.231c-0.096,0.107-0.231,0.01-0.374,0.01H46.846z"/>
		<path d="M53.637,73.656l1.549,3.963c0,0,11.07,2.264,11.746,14.41c0.273,4.928-0.57,6.971-0.442,7.971H46.846
			c2.775-4,5.436-6.152,6.034-8.098c0.338-1.098,0.127-1.568-0.387-1.568c-1.54,0-5.805,3.804-6.184,4.846
			c-0.28,0.77-2.681,2.343-4.767,2.684c-0.063,0.011-0.128,0.01-0.193,0.01c-1.674,0-3.998-3.224-3.998-3.224
			s-1.843-0.777,2.544-6.708c4.386-5.932,5.511-8.252,5.511-8.252l4.1-1.687L53.637,73.656 M53.637,72.656
			c-0.271,0-0.534,0.11-0.725,0.312l-3.984,4.191l-3.901,1.604c-0.228,0.094-0.413,0.268-0.52,0.488
			c-0.011,0.021-1.17,2.352-5.415,8.094c-2.445,3.306-3.438,5.624-3.037,7.088c0.131,0.478,0.379,0.769,0.589,0.938
			c0.62,0.833,2.756,3.495,4.706,3.495c0.12,0,0.237-0.01,0.354-0.028c2.238-0.366,5.088-2.082,5.546-3.34
			c0.375-0.829,3.271-3.328,4.688-4.028c-0.004,0.016-0.009,0.03-0.014,0.046c-0.271,0.881-1.201,1.954-2.38,3.312
			c-1.006,1.16-2.259,2.604-3.52,4.419c-0.212,0.306-0.237,0.796-0.064,1.126c0.172,0.328,0.514,0.627,0.886,0.627h19.644
			c0.285,0,0.558-0.213,0.747-0.428c0.19-0.213,0.279-0.542,0.246-0.826c-0.028-0.243,0.04-0.709,0.127-1.27
			c0.201-1.296,0.505-3.266,0.32-6.582c-0.621-11.164-9.653-14.446-11.999-15.11l-1.362-3.489c-0.125-0.318-0.403-0.553-0.739-0.619
			C53.766,72.663,53.7,72.656,53.637,72.656L53.637,72.656z"/>
	</g>
</g>
<g>
	<g>
		<path fill="#FFFFFF" d="M83.27,113c-1.243,0-2.27-1.305-2.27-2.548v-0.104c0-1.243,1.026-2.349,2.27-2.349H86v-5.086
			c0-0.276-0.116-0.914,0.16-0.914h21.682c0.276,0,0.158,0.638,0.158,0.914V108h2.733c1.243,0,2.267,1.105,2.267,2.349v0.104
			c0,1.243-1.023,2.548-2.267,2.548H83.27z"/>
		<path d="M108,103v6h2.733c0.97,0,1.267,0.378,1.267,1.349v0.104c0,0.969-0.297,1.548-1.267,1.548H97.002H83.27
			c-0.971,0-1.27-0.579-1.27-1.548v-0.104c0-0.971,0.299-1.349,1.27-1.349H86v-6H108 M107.842,102H86.16
			c-0.553,0-1.16,0.361-1.16,0.914V108h-1.73c-1.52,0-2.27,0.83-2.27,2.349v0.104c0,1.52,0.75,2.548,2.27,2.548h13.732h13.731
			c1.519,0,2.267-1.028,2.267-2.548v-0.104c0-1.519-0.748-2.349-2.267-2.349H109v-5.086C109,102.361,108.395,102,107.842,102
			L107.842,102z"/>
	</g>
	<g>
		<path fill="#FFFFFF" d="M89.184,100c-0.144,0-0.28,0.098-0.375-0.012c-0.095-0.107-0.139-0.171-0.121-0.313
			c0.004-0.025,0.325-2.586-0.002-6.347c-0.098-1.116-0.617-1.246-1.113-1.246c-1.225,0-3.085,1.171-3.698,1.619
			c-0.087,0.063-0.19,0.101-0.295,0.101c-0.077,0-0.194-0.016-0.267-0.053C83.145,93.664,83,93.495,83,93.307V77.619
			C83,77.343,83.303,77,83.579,77h5.679C89.534,77,90,77.343,90,77.619V82h2v-4.381C92,77.343,92.079,77,92.355,77h8.775
			c0.276,0,0.869,0.343,0.869,0.619V82h2v-4.381c0-0.276-0.048-0.619,0.229-0.619h5.679c0.276,0,0.093,0.343,0.093,0.619v15.688
			c0,0.188,0.098,0.36-0.07,0.445c-0.07,0.037-0.047,0.055-0.124,0.055c-0.104,0-0.157-0.032-0.244-0.096
			c-0.613-0.448-2.448-1.609-3.674-1.609c-0.495,0-1.002,0.15-1.1,1.267c-0.328,3.761,0,6.359,0.004,6.386
			c0.018,0.143-0.021,0.127-0.117,0.234c-0.095,0.109-0.229,0.012-0.372,0.012H89.184z"/>
		<path d="M110,78v15.307c0,0-2.381-1.705-4.041-1.705c-0.832,0-1.521,0.521-1.633,1.814c-0.338,3.867-0.023,6.584-0.023,6.584
			h-7.301h-0.517h-7.302c0,0,0.337-2.717,0-6.584c-0.113-1.293-0.566-1.769-1.4-1.769c-1.66,0-3.783,1.659-3.783,1.659V78h5v4h3v-4
			h4.485h0.517H101v4h3v-4H110 M109.907,77h-5.679c-0.553,0-1.229,0.066-1.229,0.619V81h-1v-3.381c0-0.553-0.316-0.619-0.869-0.619
			h-4.129h-0.517h-4.13C91.803,77,91,77.066,91,77.619V81h-1v-3.381C90,77.066,89.811,77,89.258,77h-5.679
			C83.026,77,83,77.066,83,77.619v15.688c0,0.376,0.002,0.721,0.336,0.891c0.143,0.073,0.194,0.109,0.349,0.109
			c0.208,0,0.362-0.065,0.536-0.192c0.804-0.585,2.412-1.513,3.378-1.513c0.28,0,0.53,0,0.602,0.811
			c0.322,3.698,0.002,6.253-0.002,6.278c-0.036,0.285,0.048,0.663,0.238,0.88c0.189,0.215,0.46,0.43,0.747,0.43h7.302h0.517h7.301
			c0.287,0,0.561-0.215,0.75-0.432c0.19-0.215,0.278-0.547,0.242-0.832c-0.004-0.025-0.319-2.604,0.004-6.302
			c0.07-0.811,0.335-0.821,0.614-0.821c1.089,0,2.867,1.114,3.404,1.507c0.175,0.127,0.382,0.189,0.59,0.189
			c0.154,0,0.356-0.038,0.499-0.11c0.336-0.171,0.594-0.516,0.594-0.893V77.619C111,77.066,110.46,77,109.907,77L109.907,77z"/>
	</g>
</g>
<g>
	<g>
		<path fill="#FFFFFF" d="M126.053,113c-1.244,0-2.053-1.305-2.053-2.548v-0.104c0-1.243,0.809-2.349,2.053-2.349H128v-5.086
			c0-0.276,0.667-0.914,0.943-0.914h21.683c0.276,0,0.374,0.638,0.374,0.914V108h2.517c1.243,0,2.483,1.105,2.483,2.349v0.104
			c0,1.243-1.24,2.548-2.483,2.548H126.053z"/>
		<path d="M151,103v6h2.517c0.97,0,1.483,0.378,1.483,1.349v0.104c0,0.969-0.514,1.548-1.483,1.548h-13.731h-13.732
			c-0.97,0-2.053-0.579-2.053-1.548v-0.104c0-0.971,1.083-1.349,2.053-1.349H129v-6H151 M150.626,102h-21.683
			c-0.553,0-0.943,0.361-0.943,0.914V108h-1.947c-1.52,0-3.053,0.83-3.053,2.349v0.104c0,1.52,1.533,2.548,3.053,2.548h13.732
			h13.731c1.519,0,2.483-1.028,2.483-2.548v-0.104c0-1.519-0.965-2.349-2.483-2.349H152v-5.086C152,102.361,151.179,102,150.626,102
			L150.626,102z"/>
	</g>
	<g>
		<path fill="#FFFFFF" d="M128.658,100c-0.17,0-0.329,0.072-0.421-0.07c-0.092-0.145-0.104-0.244-0.034-0.399
			c1.369-2.996-2.32-14.286-3.857-18.399c-0.091-0.243,0.02-0.495,0.255-0.606c0.068-0.032,0.142-0.038,0.214-0.038
			c0.173,0,0.34,0.095,0.432,0.253l6.303,10.805l0.516-17.313c0.008-0.252,0.201-0.459,0.451-0.483
			c0.017-0.001,0.033-0.001,0.049-0.001c0.231,0,0.436,0.16,0.487,0.389l3.686,16.201l2.553-22.073
			c0.029-0.253,0.243-0.263,0.497-0.263c0.001,0,0.003,0,0.004,0c0.256,0,0.469,0.016,0.494,0.271l2.184,22.013l3.653-16.104
			c0.052-0.229,0.256-0.411,0.487-0.411c0.016,0,0.032-0.01,0.049-0.009c0.25,0.024,0.443,0.226,0.451,0.478l0.515,17.313
			l6.306-10.805c0.092-0.158,0.259-0.248,0.432-0.248c0.072,0,0.146,0.015,0.215,0.047c0.234,0.111,0.345,0.384,0.254,0.627
			c-1.538,4.113-5.229,15.442-3.859,18.438c0.07,0.155,0.058,0.177-0.034,0.32c-0.092,0.143-0.251,0.07-0.421,0.07H128.658z"/>
		<path d="M139.787,68.139l2.486,25.166l4.336-19.059l0.566,19.061l7.186-12.219c0,0-5.602,14.912-3.846,18.912h-10.73h-11.127
			c1.755-4-3.844-18.912-3.844-18.912l7.182,12.265l0.568-19.084l4.336,19.048L139.787,68.139 M154,81L154,81 M139.787,67
			c-0.508,0-0.936,0.45-0.993,0.955l-2.219,19.377l-3.036-13.325c-0.104-0.459-0.512-0.77-0.974-0.77
			c-0.032,0-0.065,0.007-0.098,0.01c-0.501,0.049-0.888,0.464-0.903,0.967l-0.464,15.572l-5.423-9.295
			c-0.185-0.316-0.519-0.495-0.864-0.495c-0.144,0-0.289,0.031-0.428,0.097c-0.469,0.223-0.689,0.767-0.508,1.253
			c2.108,5.643,5.023,15.533,3.871,18.057c-0.142,0.31-0.116,0.76,0.068,1.047c0.184,0.286,0.501,0.551,0.841,0.551h11.127h10.73
			c0.341,0,0.657-0.264,0.842-0.551c0.184-0.287,0.209-0.692,0.067-1.002c-1.149-2.515,1.743-12.366,3.851-18.018
			c0.057-0.125,0.089-0.273,0.089-0.42c0-0.542-0.43-1.01-0.968-1.01c-0.012,0-0.023,0-0.034,0c-0.036,0-0.071,0-0.105,0.004
			c-0.156,0.016-0.302,0.066-0.428,0.146c-0.104,0.065-0.196,0.15-0.272,0.252c-0.025,0.033-0.048,0.069-0.068,0.106l-5.417,9.279
			l-0.462-15.571c-0.016-0.504-0.402-0.917-0.903-0.966c-0.032-0.003-0.065-0.005-0.098-0.005c-0.462,0-0.87,0.319-0.974,0.778
			l-2.972,13.058l-1.881-19.111c-0.05-0.509-0.476-0.971-0.987-0.971C139.792,67,139.79,67,139.787,67L139.787,67z"/>
	</g>
</g>
<g>
	<path fill="#FFFFFF" d="M174.116,80c-0.134,0-0.258-0.134-0.324-0.249c-0.067-0.116-0.067-0.29-0.001-0.406
		c0.278-0.512-0.955-3.957-2.281-6.838c-0.085-0.186-0.007-0.412,0.176-0.502c0.054-0.025,0.109-0.042,0.165-0.042
		c0.136,0,0.267,0.072,0.333,0.2l1.672,3.222l0.132-5.252c0.005-0.189,0.151-0.347,0.342-0.363c0.011-0.002,0.022-0.002,0.033-0.002
		c0.177,0,0.331,0.124,0.367,0.299l0.877,4.238l0.583-6.347c0.018-0.192,0.179-0.34,0.372-0.341h0.001
		c0.192,0,0.354,0.146,0.373,0.338l0.652,6.56l1.036-4.501c0.039-0.172,0.192-0.291,0.365-0.291c0.012,0,0.024,0.001,0.037,0.002
		c0.188,0.019,0.332,0.174,0.338,0.362l0.149,5.349l1.688-2.895c0.069-0.12,0.195-0.187,0.324-0.187
		c0.061,0,0.121,0.015,0.177,0.045c0.179,0.095,0.249,0.314,0.16,0.495c-1.487,3.03-2.526,5.97-2.27,6.419
		c0.066,0.116,0.066,0.321-0.001,0.437c-0.067,0.116-0.19,0.25-0.324,0.25H174.116z"/>
	<path d="M176.563,67.992l0.879,8.834l1.548-6.729l0.187,6.661l2.351-3.779c0,0-2.832,6.021-2.258,7.021h-2.512h-2.641
		c0.573-1-2.266-7.416-2.266-7.416l2.343,4.391l0.169-6.77l1.387,6.674L176.563,67.992 M182,73L182,73 M176.563,67
		c-0.001,0-0.002,0-0.003,0c-0.387,0-0.709,0.418-0.744,0.803l-0.353,3.898l-0.366-1.741c-0.072-0.351-0.382-0.583-0.733-0.583
		c-0.022,0-0.045,0.009-0.068,0.011c-0.379,0.034-0.673,0.352-0.683,0.732l-0.096,3.795l-1-1.928
		c-0.134-0.257-0.396-0.403-0.667-0.403c-0.11,0-0.223,0.024-0.328,0.076c-0.366,0.179-0.522,0.617-0.353,0.987
		c1.201,2.608,2.391,5.831,2.271,6.527c-0.107,0.223-0.099,0.36,0.026,0.576c0.135,0.231,0.382,0.249,0.649,0.249h2.641h2.512
		c0.268,0,0.515-0.018,0.649-0.249c0.125-0.217,0.134-0.418,0.025-0.641c-0.112-0.673,1.053-3.622,2.234-6.036
		c0.064-0.11,0.102-0.213,0.102-0.35c0-0.408-0.324-0.725-0.73-0.725c-0.007,0-0.015,0-0.021,0c-0.026,0-0.052-0.01-0.077-0.006
		c-0.111,0.01-0.215,0.041-0.307,0.095c-0.086,0.051-0.162,0.117-0.224,0.202c-0.018,0.024-0.034,0.048-0.049,0.074l-1.02,1.747
		l-0.112-4.036c-0.011-0.377-0.3-0.688-0.676-0.725c-0.025-0.003-0.05-0.004-0.075-0.004c-0.346,0-0.651,0.238-0.729,0.582
		l-0.523,2.273l-0.427-4.406C177.271,67.413,176.948,67,176.563,67L176.563,67z"/>
</g>
<g>
	<path fill="#FFFFFF" d="M163.156,113c-1.243,0-2.156-1.305-2.156-2.548v-0.104c0-1.243,0.913-2.349,2.156-2.349H166v-5.086
		c0-0.276-0.229-0.914,0.048-0.914h21.683c0.276,0,0.27,0.638,0.27,0.914V108h2.622c1.243,0,2.378,1.105,2.378,2.349v0.104
		c0,1.243-1.135,2.548-2.378,2.548H163.156z"/>
	<path d="M188,103v6h2.622c0.969,0,1.378,0.378,1.378,1.349v0.104c0,0.969-0.409,1.548-1.378,1.548H176.89h-13.733
		c-0.968,0-2.156-0.579-2.156-1.548v-0.104c0-0.971,1.188-1.349,2.156-1.349H166v-6H188 M187.73,102h-21.683
		c-0.553,0-1.048,0.361-1.048,0.914V108h-1.844c-1.519,0-3.156,0.83-3.156,2.349v0.104c0,1.52,1.638,2.548,3.156,2.548h13.733
		h13.732c1.519,0,2.378-1.028,2.378-2.548v-0.104c0-1.519-0.859-2.349-2.378-2.349H189v-5.086C189,102.361,188.283,102,187.73,102
		L187.73,102z"/>
</g>
<g>
	<path fill="#FFFFFF" d="M169.062,100c-0.104,0-0.207,0.125-0.292,0.064c-3.52-2.525-5.826-4.456-5.826-9.191
		c0-3.671,1.415-7.098,3.983-9.719c0.43-0.439,0.924-0.642,1.468-0.642c1.263,0,2.544,1.235,3.9,2.532
		c1.431,1.367,3.051,2.921,4.595,2.921c1.513,0,3.111-1.571,4.521-2.96c1.348-1.327,2.621-2.579,3.885-2.579
		c0.521,0,0.998,0.21,1.416,0.623c2.659,2.637,4.124,6.154,4.124,9.902c0,4.735-2.307,6.586-5.825,9.112
		c-0.085,0.061-0.188-0.064-0.292-0.064H169.062z"/>
	<path d="M185.295,80.928c0.371,0,0.727,0.144,1.063,0.479c2.457,2.436,3.977,5.904,3.977,9.637c0,4.506-2.218,5.957-5.617,8.957
		h-15.656c-3.4-3-5.618-4.451-5.618-8.957c0-3.662,1.465-7.028,3.841-9.453c0.351-0.358,0.722-0.535,1.11-0.535
		c2.314,0.001,5.272,5.428,8.495,5.428C180.069,86.482,182.992,80.928,185.295,80.928 M185.295,79.928
		c-1.469,0-2.813,1.323-4.235,2.725c-1.342,1.321-2.861,2.818-4.17,2.818c-1.343,0-2.887-1.476-4.249-2.777
		c-1.432-1.368-2.783-2.661-4.246-2.661c-0.684,0-1.297,0.273-1.825,0.813c-2.66,2.715-4.126,6.305-4.126,10.107
		c0,4.963,2.501,7.233,6.035,9.769c0.17,0.123,0.374,0.279,0.583,0.279h15.656c0.209,0,0.413-0.156,0.583-0.279
		c3.533-2.535,6.034-4.761,6.034-9.723c0-3.883-1.518-7.549-4.272-10.279C186.556,80.216,185.944,79.928,185.295,79.928
		L185.295,79.928z"/>
</g>
<path stroke="#FFFFFF" stroke-linecap="round" stroke-linejoin="round" stroke-miterlimit="10" d="M-17.408,104.775
	c-2.648,0-5.096-4.361-6.67-8.328c0.725-1,1.156-2.188,1.156-3.519c0-2.409-1.407-4.429-3.439-5.429h1.38
	c0.854,0,1.549-0.645,1.549-1.5s-0.694-1.5-1.549-1.5h-0.146c1.428-2,2.345-3.039,2.345-5.008c0-3.434-2.783-6.29-6.216-6.29
	c-3.434,0-6.217,2.747-6.217,6.179c0,1.977,0.925,3.716,2.362,4.854c-0.794,0.066-1.419,0.815-1.419,1.626
	c0,0.855,0.694,1.639,1.548,1.639h1.087c-2.033,1-3.438,2.961-3.438,5.369c0,1.316,0.423,2.486,1.136,3.482
	c-1.559,3.973-3.996,8.448-6.651,8.448c-4.723,0-2.297,5.7-2.297,5.7h12.906h0.41h1.147h0.411h12.906
	C-15.109,110.5-12.685,104.775-17.408,104.775z M-24.875,94.124"/>
</svg>
