<?xml version="1.0" encoding="utf-8"?>
<!-- Generator: Adobe Illustrator 16.0.0, SVG Export Plug-In . SVG Version: 6.00 Build 0)  -->
<!DOCTYPE svg PUBLIC "-//W3C//DTD SVG 1.1//EN" "http://www.w3.org/Graphics/SVG/1.1/DTD/svg11.dtd">
<svg version="1.1" id="Layer_1" xmlns="http://www.w3.org/2000/svg" xmlns:xlink="http://www.w3.org/1999/xlink" x="0px" y="0px"
	 width="50px" height="50px" viewBox="0 0 50 50" enable-background="new 0 0 50 50" xml:space="preserve">
<rect x="-77" y="116" fill="#FFFFFF" width="279" height="71"/>
<g>
	<g>
		<path d="M-2.265,111C-3.508,111-5,109.695-5,108.452v-0.104C-5,107.105-3.508,106-2.265,106H0v-5.086
			C0,100.638,0.351,100,0.627,100h4.488c-0.548,0-1.3-0.639-1.995-1.044c-1.952-1.139-3.795-2.11-3.795-3.495
			c0-4.346,1.652-10.028,6.289-12.056c0.331-0.951,1.697-4.72,3.224-6.985c-0.938-0.729-1.483-1.848-1.483-3.111
			c0-2.235,1.646-3.876,3.829-3.876c0.126,0,0.197,0.009,0.269,0.014c0.104-0.005,0.175-0.009,0.248-0.009
			c2.236,0,3.883,1.647,3.883,3.831c0,1.309-0.546,2.447-1.484,3.177c1.526,2.267,2.892,6.06,3.223,7.012
			c4.636,2.028,6.289,7.762,6.289,12.107c0,1.386-1.843,2.253-3.795,3.392C19.12,99.361,18.369,100,17.82,100h4.488
			c0.276,0,0.691,0.638,0.691,0.914V106h2.2c1.243,0,1.8,1.105,1.8,2.349v0.104c0,1.243-0.557,2.548-1.8,2.548H-2.265z"/>
		<path fill="#FFFFFF" d="M11.752,70C13.654,70,15,71.367,15,73.27v0.052c0,1.286-0.606,2.403-1.648,2.995
			c1.811,2.396,3.548,7.515,3.548,7.515c4.23,1.713,6.2,6.934,6.2,11.776c0,1.931-5.621,3.393-6.458,5.393H22v6h3.2
			c0.97,0,1.8,0.378,1.8,1.349v0.104c0,0.969-0.83,1.548-1.8,1.548H11.468H-2.265C-3.234,110-4,109.421-4,108.452v-0.104
			C-4,107.378-3.234,107-2.265,107H1v-6h5.295c-0.837-2-6.469-3.462-6.469-5.393c0-4.843,1.959-10.042,6.189-11.755
			c0,0,1.791-5.129,3.601-7.525C8.574,75.735,8,74.607,8,73.321V73.27C8,71.367,9.28,70,11.183,70h0.053
			c0.079,0,0.155,0.007,0.232,0.012C11.544,70.007,11.621,70,11.699,70H12 M11.752,69h-0.053c-0.078,0-0.155,0.004-0.232,0.01
			C11.374,69.003,11.306,69,11.236,69h-0.053C8.715,69,7,70.801,7,73.27v0.052c0,1.258,0.41,2.4,1.255,3.217
			c-1.368,2.191-2.598,5.401-3.005,6.552c-4.705,2.198-6.406,8.039-6.406,12.475c0,1.673,1.955,2.86,4.034,4.073
			C3.051,99.738,3.226,100,3.414,100H0.627C0.075,100,0,100.361,0,100.914V106h-2.265C-3.784,106-5,106.829-5,108.349v0.104
			c0,1.52,1.216,2.548,2.735,2.548h13.732H25.2c1.52,0,2.8-1.028,2.8-2.548v-0.104c0-1.52-1.28-2.349-2.8-2.349H23v-5.086
			c0-0.553-0.139-0.914-0.691-0.914h-2.786c0.187,0,0.371-0.262,0.544-0.362c2.079-1.213,4.043-2.379,4.043-4.052
			c0-4.437-1.683-10.287-6.388-12.485c-0.407-1.15-1.641-4.366-3.009-6.558C15.558,75.727,16,74.579,16,73.321V73.27
			C16,70.801,14.221,69,11.752,69L11.752,69z"/>
	</g>
</g>
<g>
	<g>
		<path d="M39.407,110c-1.243,0-2.407-1.305-2.407-2.548v-0.104c0-1.243,1.164-2.349,2.407-2.349H42v-5.086
			C42,99.638,42.022,99,42.299,99H63.98c0.276,0,0.02,0.638,0.02,0.914V105h2.872c1.243,0,2.128,1.105,2.128,2.349v0.104
			c0,1.243-0.885,2.548-2.128,2.548H39.407z"/>
		<path fill="#FFFFFF" d="M64,100v6h2.872c0.969,0,2.128,0.378,2.128,1.349v0.104c0,0.969-1.159,1.548-2.128,1.548H53.14H39.407
			c-0.969,0-1.407-0.579-1.407-1.548v-0.104c0-0.971,0.438-1.349,1.407-1.349H42v-6H64 M63.98,99H42.299
			C41.746,99,41,99.361,41,99.914V105h-1.593c-1.52,0-2.407,0.83-2.407,2.349v0.104c0,1.52,0.888,2.548,2.407,2.548H53.14h13.732
			c1.52,0,3.128-1.028,3.128-2.548v-0.104c0-1.519-1.608-2.349-3.128-2.349H65v-5.086C65,99.361,64.533,99,63.98,99L63.98,99z"/>
	</g>
	<g>
		<path d="M43.251,97c-0.187,0-0.356,0.055-0.443-0.109c-0.086-0.166-0.073-0.285,0.033-0.438c1.245-1.793,2.487-3.187,3.486-4.337
			c1.217-1.403,2.178-2.49,2.48-3.473c0.218-0.708,0.12-0.883,0.119-0.885c-1.282,0.02-5.396,3.611-5.742,4.564
			c-0.359,0.988-2.975,2.662-5.155,3.019c-0.091,0.015-0.182,0.024-0.274,0.024c-1.775,0-3.907-2.756-4.346-3.349
			c-0.148-0.107-0.358-0.321-0.467-0.717c-0.354-1.287,0.642-3.527,2.956-6.657c4.29-5.803,5.452-8.15,5.464-8.174
			c0.054-0.11,0.146-0.197,0.259-0.244l4.001-1.645l4.058-4.27c0.095-0.1,0.227-0.155,0.362-0.155c0.032,0,0.064,0.003,0.097,0.01
			c0.167,0.032,0.307,0.148,0.369,0.309l1.453,3.719c1.748,0.45,11.246,3.412,11.875,14.718c0.182,3.263-0.118,5.19-0.315,6.467
			c-0.097,0.621-0.166,1.069-0.13,1.381c0.018,0.142-0.027,0.126-0.122,0.231C63.173,97.098,63.037,97,62.895,97H43.251z"/>
		<path fill="#FFFFFF" d="M50.042,70.656l1.549,3.963c0,0,11.07,2.264,11.746,14.41C63.61,93.957,62.767,96,62.895,97H43.251
			c2.775-4,5.436-6.152,6.034-8.098c0.338-1.098,0.127-1.568-0.387-1.568c-1.54,0-5.805,3.804-6.184,4.846
			c-0.28,0.77-2.681,2.343-4.767,2.684c-0.063,0.011-0.128,0.01-0.193,0.01c-1.674,0-3.998-3.224-3.998-3.224
			s-1.843-0.777,2.544-6.708c4.386-5.932,5.511-8.252,5.511-8.252l4.1-1.687L50.042,70.656 M50.042,69.656
			c-0.271,0-0.534,0.11-0.725,0.312l-3.984,4.191l-3.901,1.604c-0.228,0.094-0.413,0.268-0.52,0.488
			c-0.011,0.021-1.17,2.352-5.415,8.094c-2.445,3.306-3.438,5.624-3.037,7.088c0.131,0.478,0.379,0.769,0.589,0.938
			c0.62,0.833,2.756,3.495,4.706,3.495c0.12,0,0.237-0.01,0.354-0.028c2.238-0.366,5.088-2.082,5.546-3.34
			c0.375-0.829,3.271-3.328,4.688-4.028c-0.004,0.016-0.009,0.03-0.014,0.046c-0.271,0.881-1.201,1.954-2.38,3.312
			c-1.006,1.16-2.259,2.604-3.52,4.419c-0.212,0.306-0.237,0.796-0.064,1.126C42.537,97.701,42.879,98,43.251,98h19.644
			c0.285,0,0.558-0.213,0.747-0.428c0.19-0.213,0.279-0.542,0.246-0.826c-0.028-0.243,0.04-0.709,0.127-1.27
			c0.201-1.296,0.505-3.266,0.32-6.582c-0.621-11.164-9.653-14.446-11.999-15.11l-1.362-3.489c-0.125-0.318-0.403-0.553-0.739-0.619
			C50.171,69.663,50.105,69.656,50.042,69.656L50.042,69.656z"/>
	</g>
</g>
<g>
	<g>
		<path d="M79.27,110c-1.243,0-2.27-1.218-2.27-2.461v-0.104c0-1.243,1.026-2.436,2.27-2.436H82v-4.999
			c0-0.276-0.116-0.001,0.16-0.001h21.682c0.276,0,0.158-0.275,0.158,0.001V105h2.733c1.243,0,2.267,1.192,2.267,2.436v0.104
			c0,1.243-1.023,2.461-2.267,2.461H79.27z"/>
		<path fill="#FFFFFF" d="M104,100v6h2.733c0.97,0,1.267,0.465,1.267,1.436v0.104c0,0.969-0.297,1.461-1.267,1.461H93.002H79.27
			c-0.971,0-1.27-0.492-1.27-1.461v-0.104c0-0.971,0.299-1.436,1.27-1.436H82v-6H104 M103.842,99H82.16
			c-0.553,0-1.16,0.448-1.16,1.001V105h-1.73c-1.52,0-2.27,0.916-2.27,2.436v0.104c0,1.52,0.75,2.461,2.27,2.461h13.732h13.731
			c1.519,0,2.267-0.941,2.267-2.461v-0.104c0-1.52-0.748-2.436-2.267-2.436H105v-4.999C105,99.448,104.395,99,103.842,99L103.842,99
			z"/>
	</g>
	<g>
		<path d="M85.184,97c-0.144,0-0.28,0.141-0.375,0.032c-0.095-0.107-0.139-0.149-0.121-0.292c0.004-0.025,0.325-2.575-0.002-6.336
			c-0.098-1.116-0.617-1.241-1.113-1.241c-1.225,0-3.085,1.174-3.698,1.622c-0.087,0.063-0.19,0.103-0.295,0.103
			c-0.077,0-0.194-0.015-0.267-0.052C79.145,90.751,79,90.582,79,90.394V74.706C79,74.43,79.303,74,79.579,74h5.679
			C85.534,74,86,74.43,86,74.706V79h2v-4.294C88,74.43,88.079,74,88.355,74h8.775C97.407,74,98,74.43,98,74.706V79h2v-4.294
			C100,74.43,99.952,74,100.229,74h5.679c0.276,0,0.093,0.43,0.093,0.706v15.688c0,0.188,0.098,0.36-0.07,0.445
			c-0.07,0.037-0.047,0.055-0.124,0.055c-0.104,0-0.157-0.032-0.244-0.096c-0.613-0.448-2.448-1.609-3.674-1.609
			c-0.495,0-1.002,0.15-1.1,1.267c-0.328,3.761,0,6.359,0.004,6.386c0.018,0.143-0.021,0.084-0.117,0.191
			C100.58,97.141,100.446,97,100.303,97H85.184z"/>
		<path fill="#FFFFFF" d="M106,75v15.394c0,0-2.381-1.705-4.041-1.705c-0.832,0-1.521,0.479-1.633,1.771
			c-0.338,3.867-0.023,6.54-0.023,6.54h-7.301h-0.517h-7.302c0,0,0.337-2.673,0-6.54c-0.113-1.293-0.566-1.747-1.4-1.747
			c-1.66,0-3.783,1.681-3.783,1.681V75h5v4h3v-4h4.485h0.517H97v4h3v-4H106 M105.907,74h-5.679C99.676,74,99,74.153,99,74.706V78h-1
			v-3.294C98,74.153,97.684,74,97.131,74h-4.129h-0.517h-4.13C87.803,74,87,74.153,87,74.706V78h-1v-3.294
			C86,74.153,85.811,74,85.258,74h-5.679C79.026,74,79,74.153,79,74.706v15.688c0,0.376,0.002,0.721,0.336,0.891
			c0.143,0.073,0.194,0.109,0.349,0.109c0.208,0,0.362-0.065,0.536-0.192c0.804-0.585,2.412-1.513,3.378-1.513
			c0.28,0,0.53,0,0.602,0.811c0.322,3.698,0.002,6.253-0.002,6.278c-0.036,0.285,0.048,0.62,0.238,0.836
			C84.626,97.828,84.896,98,85.184,98h7.302h0.517h7.301c0.287,0,0.561-0.172,0.75-0.388c0.19-0.215,0.278-0.526,0.242-0.812
			c-0.004-0.025-0.319-2.592,0.004-6.29c0.07-0.811,0.335-0.816,0.614-0.816c1.089,0,2.867,1.117,3.404,1.51
			c0.175,0.127,0.382,0.191,0.59,0.191c0.154,0,0.356-0.037,0.499-0.109c0.336-0.171,0.594-0.516,0.594-0.893V74.706
			C107,74.153,106.46,74,105.907,74L105.907,74z"/>
	</g>
</g>
<g>
	<g>
		<path d="M120.053,113c-1.244,0-2.053-1.305-2.053-2.548v-0.104c0-1.243,0.809-2.349,2.053-2.349H122v-5.086
			c0-0.276,0.667-0.914,0.943-0.914h21.683c0.276,0,0.374,0.638,0.374,0.914V108h2.517c1.243,0,2.483,1.105,2.483,2.349v0.104
			c0,1.243-1.24,2.548-2.483,2.548H120.053z"/>
		<path fill="#FFFFFF" d="M145,103v6h2.517c0.97,0,1.483,0.378,1.483,1.349v0.104c0,0.969-0.514,1.548-1.483,1.548h-13.731h-13.732
			c-0.97,0-2.053-0.579-2.053-1.548v-0.104c0-0.971,1.083-1.349,2.053-1.349H123v-6H145 M144.626,102h-21.683
			c-0.553,0-0.943,0.361-0.943,0.914V108h-1.947c-1.52,0-3.053,0.83-3.053,2.349v0.104c0,1.52,1.533,2.548,3.053,2.548h13.732
			h13.731c1.519,0,2.483-1.028,2.483-2.548v-0.104c0-1.519-0.965-2.349-2.483-2.349H146v-5.086C146,102.361,145.179,102,144.626,102
			L144.626,102z"/>
	</g>
	<g>
		<path d="M122.658,100c-0.17,0-0.329,0.072-0.421-0.07c-0.092-0.145-0.104-0.244-0.034-0.399c1.369-2.996-2.32-14.286-3.857-18.399
			c-0.091-0.243,0.02-0.495,0.255-0.606c0.068-0.032,0.142-0.038,0.214-0.038c0.173,0,0.34,0.095,0.432,0.253l6.303,10.805
			l0.516-17.313c0.008-0.252,0.201-0.459,0.451-0.483c0.017-0.001,0.033-0.001,0.049-0.001c0.231,0,0.436,0.16,0.487,0.389
			l3.686,16.201l2.553-22.073c0.029-0.253,0.243-0.263,0.497-0.263c0.001,0,0.003,0,0.004,0c0.256,0,0.469,0.016,0.494,0.271
			l2.184,22.013l3.653-16.104c0.052-0.229,0.256-0.411,0.487-0.411c0.016,0,0.032-0.01,0.049-0.009
			c0.25,0.024,0.443,0.226,0.451,0.478l0.515,17.313l6.306-10.805c0.092-0.158,0.259-0.248,0.432-0.248
			c0.072,0,0.146,0.015,0.215,0.047c0.234,0.111,0.345,0.384,0.254,0.627c-1.538,4.113-5.229,15.442-3.859,18.438
			c0.07,0.155,0.058,0.177-0.034,0.32c-0.092,0.143-0.251,0.07-0.421,0.07H122.658z"/>
		<path fill="#FFFFFF" d="M133.787,68.139l2.486,25.166l4.336-19.059l0.566,19.061l7.186-12.219c0,0-5.602,14.912-3.846,18.912
			h-10.73h-11.127c1.755-4-3.844-18.912-3.844-18.912l7.182,12.265l0.568-19.084l4.336,19.048L133.787,68.139 M148,81L148,81
			 M133.787,67c-0.508,0-0.936,0.45-0.993,0.955l-2.219,19.377l-3.036-13.325c-0.104-0.459-0.512-0.77-0.974-0.77
			c-0.032,0-0.065,0.007-0.098,0.01c-0.501,0.049-0.888,0.464-0.903,0.967l-0.464,15.572l-5.423-9.295
			c-0.185-0.316-0.519-0.495-0.864-0.495c-0.144,0-0.289,0.031-0.428,0.097c-0.469,0.223-0.689,0.767-0.508,1.253
			c2.108,5.643,5.023,15.533,3.871,18.057c-0.142,0.31-0.116,0.76,0.068,1.047c0.184,0.286,0.501,0.551,0.841,0.551h11.127h10.73
			c0.341,0,0.657-0.264,0.842-0.551c0.184-0.287,0.209-0.692,0.067-1.002c-1.149-2.515,1.743-12.366,3.851-18.018
			c0.057-0.125,0.089-0.273,0.089-0.42c0-0.542-0.43-1.01-0.968-1.01c-0.012,0-0.023,0-0.034,0c-0.036,0-0.071,0-0.105,0.004
			c-0.156,0.016-0.302,0.066-0.428,0.146c-0.104,0.065-0.196,0.15-0.272,0.252c-0.025,0.033-0.048,0.069-0.068,0.106l-5.417,9.279
			l-0.462-15.571c-0.016-0.504-0.402-0.917-0.903-0.966c-0.032-0.003-0.065-0.005-0.098-0.005c-0.462,0-0.87,0.319-0.974,0.778
			l-2.972,13.058l-1.881-19.111c-0.05-0.509-0.476-0.971-0.987-0.971C133.792,67,133.79,67,133.787,67L133.787,67z"/>
	</g>
</g>
<g>
	<g>
		<path fill="#FFFFFF" d="M22.116,15c-0.134,0-0.257-0.134-0.325-0.25c-0.067-0.116-0.067-0.29,0-0.406
			c0.278-0.512-0.955-3.957-2.281-6.838c-0.085-0.185-0.007-0.412,0.176-0.501c0.053-0.026,0.109-0.042,0.165-0.042
			c0.136,0,0.267,0.072,0.333,0.2l1.671,3.221l0.132-5.25c0.005-0.19,0.152-0.348,0.341-0.364c0.012-0.001,0.023-0.002,0.034-0.002
			c0.176,0,0.331,0.124,0.367,0.299l0.876,4.238l0.583-6.155C24.207,2.957,24.368,3,24.561,3c0,0,0.001,0,0.001,0
			c0.193,0,0.354-0.045,0.373,0.146l0.653,6.464l1.036-4.549c0.039-0.172,0.192-0.315,0.365-0.315c0.012,0,0.024-0.011,0.037-0.01
			c0.188,0.019,0.332,0.168,0.338,0.356l0.149,5.345l1.688-2.896c0.069-0.119,0.195-0.187,0.324-0.187
			c0.061,0,0.121,0.014,0.177,0.044c0.179,0.095,0.249,0.314,0.16,0.495c-1.487,3.031-2.526,5.97-2.27,6.419
			c0.066,0.116,0.066,0.321-0.001,0.437S27.402,15,27.269,15H22.116z"/>
		<path d="M24.563,2.992l0.879,8.834l1.548-6.729l0.187,6.661l2.351-3.779c0,0-2.832,6.021-2.258,7.021h-2.512h-2.641
			c0.573-1-2.266-7.416-2.266-7.416l2.343,4.391l0.169-6.77l1.387,6.674L24.563,2.992 M30,8L30,8 M24.563,2
			c-0.001,0-0.002,0-0.003,0c-0.386,0-0.708,0.417-0.744,0.802l-0.353,3.899L23.097,4.96c-0.072-0.351-0.382-0.583-0.734-0.583
			c-0.022,0-0.045,0.008-0.067,0.01c-0.379,0.034-0.673,0.351-0.683,0.732l-0.095,3.796l-1.001-1.928
			c-0.133-0.257-0.395-0.404-0.666-0.404c-0.111,0-0.223,0.025-0.329,0.077c-0.366,0.179-0.522,0.618-0.352,0.987
			c1.201,2.608,2.39,5.831,2.271,6.527c-0.107,0.223-0.098,0.361,0.027,0.577C21.602,14.982,21.849,15,22.116,15h2.641h2.512
			c0.268,0,0.515-0.018,0.649-0.249c0.125-0.217,0.134-0.418,0.025-0.641c-0.112-0.672,1.053-3.621,2.234-6.036
			c0.064-0.111,0.102-0.213,0.102-0.35c0-0.408-0.324-0.724-0.73-0.724c-0.007,0-0.015,0-0.021,0c-0.026,0-0.052-0.009-0.077-0.006
			c-0.111,0.011-0.215,0.042-0.307,0.096c-0.086,0.051-0.162,0.116-0.224,0.2c-0.018,0.024-0.034,0.049-0.049,0.075l-1.02,1.747
			l-0.112-4.035c-0.011-0.377-0.3-0.688-0.676-0.726c-0.025-0.003-0.05-0.004-0.075-0.004c-0.346,0-0.651,0.239-0.729,0.582
			l-0.523,2.274l-0.427-4.407C25.271,2.413,24.948,2,24.563,2L24.563,2z"/>
	</g>
	<g>
		<path fill="#FFFFFF" d="M11.156,48C9.914,48,9,46.695,9,45.452v-0.104C9,44.105,9.914,43,11.156,43H14v-5.086
			C14,37.638,13.771,37,14.048,37H35.73c0.276,0,0.27,0.638,0.27,0.914V43h2.622C39.865,43,41,44.105,41,45.349v0.104
			C41,46.695,39.865,48,38.622,48H11.156z"/>
		<path d="M36,38v6h2.622C39.591,44,40,44.378,40,45.349v0.104C40,46.421,39.591,47,38.622,47H24.89H11.156
			C10.188,47,9,46.421,9,45.452v-0.104C9,44.378,10.188,44,11.156,44H14v-6H36 M35.73,37H14.048C13.496,37,13,37.361,13,37.914V43
			h-1.844C9.638,43,8,43.829,8,45.349v0.104C8,46.972,9.638,48,11.156,48H24.89h13.732C40.142,48,41,46.972,41,45.452v-0.104
			C41,43.829,40.142,43,38.622,43H37v-5.086C37,37.361,36.283,37,35.73,37L35.73,37z"/>
	</g>
	<g>
		<path fill="#FFFFFF" d="M17.062,35c-0.104,0-0.207,0.125-0.292,0.064c-3.52-2.525-5.827-4.456-5.827-9.191
			c0-3.671,1.415-7.097,3.984-9.719c0.43-0.439,0.923-0.642,1.467-0.642c1.262,0,2.544,1.235,3.901,2.533
			c1.43,1.367,3.051,2.921,4.594,2.921c1.513,0,3.111-1.571,4.521-2.959c1.348-1.328,2.621-2.58,3.885-2.58
			c0.521,0,0.998,0.21,1.416,0.625c2.659,2.636,4.124,6.153,4.124,9.901c0,4.736-2.307,6.586-5.825,9.113
			C32.925,35.125,32.822,35,32.718,35H17.062z"/>
		<path d="M33.295,15.928c0.371,0,0.727,0.144,1.063,0.479c2.457,2.436,3.977,5.905,3.977,9.637c0,4.506-2.218,5.957-5.617,8.957
			H17.062c-3.4-3-5.618-4.451-5.618-8.957c0-3.662,1.465-7.028,3.841-9.453c0.351-0.358,0.721-0.535,1.11-0.535
			c2.315,0,5.272,5.427,8.495,5.427C28.069,21.482,30.992,15.928,33.295,15.928 M33.295,14.928c-1.469,0-2.813,1.323-4.235,2.725
			c-1.342,1.321-2.861,2.818-4.17,2.818c-1.343,0-2.887-1.476-4.249-2.778c-1.431-1.368-2.783-2.66-4.246-2.661
			c-0.683,0-1.297,0.273-1.825,0.812c-2.661,2.715-4.126,6.305-4.126,10.108c0,4.963,2.501,7.233,6.035,9.769
			C16.648,35.844,16.853,36,17.062,36h15.656c0.209,0,0.413-0.156,0.583-0.279c3.533-2.535,6.034-4.761,6.034-9.723
			c0-3.883-1.518-7.548-4.272-10.279C34.556,15.216,33.944,14.928,33.295,14.928L33.295,14.928z"/>
	</g>
</g>
<path stroke="#FFFFFF" stroke-linecap="round" stroke-linejoin="round" stroke-miterlimit="10" d="M-17.408,104.775
	c-2.648,0-5.096-4.361-6.67-8.328c0.725-1,1.156-2.188,1.156-3.519c0-2.409-1.407-4.429-3.439-5.429h1.38
	c0.854,0,1.549-0.645,1.549-1.5s-0.694-1.5-1.549-1.5h-0.146c1.428-2,2.345-3.039,2.345-5.008c0-3.434-2.783-6.29-6.216-6.29
	c-3.434,0-6.217,2.747-6.217,6.179c0,1.977,0.925,3.716,2.362,4.854c-0.794,0.066-1.419,0.815-1.419,1.626
	c0,0.855,0.694,1.639,1.548,1.639h1.087c-2.033,1-3.438,2.961-3.438,5.369c0,1.316,0.423,2.486,1.136,3.482
	c-1.559,3.973-3.996,8.448-6.651,8.448c-4.723,0-2.297,5.7-2.297,5.7h12.906h0.41h1.147h0.411h12.906
	C-15.109,110.5-12.685,104.775-17.408,104.775z M-24.875,94.124"/>
</svg>
